<?xml version="1.0" encoding="UTF-8" standalone="no"?>
<!-- Created with Inkscape (http://www.inkscape.org/) -->
<svg
   xmlns:svg="http://www.w3.org/2000/svg"
   xmlns="http://www.w3.org/2000/svg"
   version="1.0"
   width="500"
   height="490.31"
   id="svg2">
  <defs
     id="defs4">
    <clipPath
       id="clipPath2500">
      <path
         d="M 0,701.939 L 593,701.939 C 603.4934,701.939 612,693.4324 612,682.939 L 612,90.939 C 612,80.4456 603.4934,71.939 593,71.939 L -593,71.939 C -603.4934,71.939 -612,80.4456 -612,90.939 L -612,682.939 C -612,693.4324 -603.4934,701.939 -593,701.939"
         id="path2502" />
    </clipPath>
    <clipPath
       id="clipPath2464">
      <path
         d="M 0,702 L 593,702 C 603.4934,702 612,693.4934 612,683 L 612,91 C 612,80.5066 603.4934,72 593,72 L -593,72 C -603.4934,72 -612,80.5066 -612,91 L -612,683 C -612,693.4934 -603.4934,702 -593,702"
         id="path2466" />
    </clipPath>
    <clipPath
       id="clipPath2452">
      <path
         d="M 0,701 L 593,701 C 602.9412,701 611,692.9412 611,683 L 611,91 C 611,81.0589 602.9412,73 593,73 L -593,73 C -602.9411,73 -611,81.0589 -611,91 L -611,683 C -611,692.9412 -602.9411,701 -593,701"
         id="path2454" />
    </clipPath>
    <clipPath
       id="clipPath2430">
      <path
         d="M 36,828.0562 L 36,774.75 L 89.0532,774.75 L 89.0532,828.0562"
         id="path2432" />
    </clipPath>
    <clipPath
       id="clipPath2422">
      <path
         d="M 34.25,774 L 90,774 L 90,828.625 L 34.25,828.625 L 34.25,774 z"
         id="path2424" />
    </clipPath>
  </defs>
  <g
     transform="translate(-505.1563,272.38255)"
     id="layer1">
    <g
       transform="matrix(6.8878924,0,0,6.8878924,-2964.3056,-1155.4006)"
       id="g2646">
      <path
         d="M 505.15625,197.93138 L 574.84375,197.93138 L 574.84375,129.65013 L 505.15625,129.65013 L 505.15625,197.93138 z"
         id="path2416"
         style="fill:#ffffff;fill-opacity:1;fill-rule:nonzero;stroke:none" />
      <g
         transform="matrix(1.25,0,0,-1.25,462.34375,1165.4314)"
         clip-path="url(#clipPath2430)"
         id="g2428">
        <path
           d="M 36,825.4405 C 36,826.8843 37.1709,828.0562 38.6162,828.0562 L 86.4097,828.0562 C 87.855,828.0562 89.0269,826.8843 89.0269,825.4405 L 89.0532,777.3672 C 89.0532,775.9229 87.8823,774.75 86.437,774.75 L 38.6162,774.75 C 37.1709,774.75 36,775.9229 36,777.3672 L 36,825.4405"
           id="path2434"
           style="fill:#1378c7;fill-opacity:1;fill-rule:nonzero;stroke:none" />
        <path
           d="M 78.5981,783.4786 C 76.9097,783.2696 76.0776,783.501 76.0776,783.501 C 75.1753,783.5479 75.1519,784.2168 75.1519,784.2168 L 75.1519,788.2872 C 77.9731,788.3711 78.5981,788.2549 78.5981,788.2549 C 79.2681,788.2325 79.4536,788.0479 79.4536,788.0479 L 79.7534,789.8331 C 79.7534,789.8331 79.6157,789.7168 77.7651,789.7627 C 77.7651,789.7627 78.2739,789.7627 75.1519,789.7862 L 75.147,793.3892 C 75.1401,793.9673 75.8237,793.9346 75.8237,793.9346 C 78.6206,794.0044 79.2222,793.8423 79.2222,793.8423 C 79.8696,793.8423 80.0542,793.5044 80.0542,793.5044 L 80.355,794.9615 C 80.4712,795.2505 79.7075,795.2164 79.7075,795.2164 L 78.6206,795.2164 C 77.8335,795.1353 77.8579,795.9795 77.8579,795.9795 C 77.8579,798.2095 77.8579,800.1172 77.8589,801.691 C 77.8599,805.501 77.8618,807.4253 77.8618,807.4253 C 77.9077,808.3042 78.3892,808.3643 78.3892,808.3643 L 77.3032,808.3643 C 81.4419,821.0836 81.9507,821.3004 81.9507,821.3004 C 80.0083,821.1382 79.1763,821.2774 79.1763,821.2774 C 79.9155,821.0005 79.3374,819.6827 79.3374,819.6827 C 78.019,815.1495 76.8862,812.2823 76.8862,812.2823 C 75.1753,816.4903 74.7358,817.6006 74.7358,817.6006 C 73.4409,820.9532 73.5327,821.3702 73.5327,821.3702 C 71.8687,821.1856 70.7817,821.3702 70.7817,821.3702 C 71.2446,821.1856 70.9575,820.2603 70.9575,820.2603 C 69.6157,815.7046 68.561,812.9063 68.561,812.9063 C 66.041,817.8555 65.2681,820.3985 65.2681,820.3985 C 64.9219,821.4625 64.436,821.3233 64.436,821.3233 C 56.5503,821.2315 55.0811,821.3463 55.0811,821.3463 C 55.936,821.2086 55.8672,819.2886 55.8672,819.2886 L 55.8711,810.6866 L 50.8262,818.7105 C 49.7163,820.5142 49.8081,821.3004 49.8081,821.3004 L 45.9229,821.3004 C 46.5479,820.8843 46.5239,819.4044 46.5239,819.4044 C 46.8052,815.1983 46.4551,809.3453 46.4551,809.3453 C 46.3862,808.2354 45.2993,808.2354 45.2993,808.2354 L 48.374,808.2354 C 49.6001,808.1192 48.791,806.3853 48.791,806.3853 L 46.501,802.3384 L 44.4199,805.2754 C 42.4311,808.3394 41.3911,808.3135 41.3911,808.3135 L 38.2002,808.3135 C 39.772,808.1055 42.5698,804.3965 42.5698,804.3965 L 44.2813,802.0372 C 44.3574,801.918 44.4263,801.8008 44.4888,801.691 C 45.1606,800.4546 45.0449,799.5635 45.0449,799.5635 L 45.0449,796.7193 C 44.9981,795.4932 43.8882,795.1695 43.8882,795.1695 L 45.6689,795.1924 C 46.9639,795.2623 47.0103,793.2964 47.0103,793.2964 C 47.0791,788.3487 47.0103,784.3243 47.0103,784.3243 C 47.0332,782.4053 46.085,782.1045 46.085,782.1045 C 48.5361,782.2432 50.71,782.0821 50.71,782.0821 C 52.9419,781.8506 53.2539,782.0401 53.2539,782.0401 C 53.7969,782.1622 53.832,782.5206 53.832,782.5206 L 54.1089,784.1026 C 53.6699,783.4229 52.8608,783.3291 52.8608,783.3291 C 52.1211,783.1788 49.9932,783.2979 49.9932,783.2979 C 49.9932,783.2979 49.022,783.3672 49.0679,783.9913 C 49.0679,783.9913 48.8833,789.6192 49.1382,794.2916 C 49.1382,794.2916 49.1143,795.3316 50.3633,795.4244 L 48.1431,795.4244 C 47.0103,795.5865 47.0103,796.3726 47.0103,796.3726 L 47.0103,799.4244 C 46.9668,800.0508 47.436,801.043 47.7896,801.691 C 47.998,802.0748 48.166,802.3384 48.166,802.3384 C 51.519,808.2124 52.0049,808.3272 52.0049,808.3272 L 49.3921,808.3272 C 48.3281,808.4205 48.2451,809.3916 48.2451,809.3916 L 48.2451,818.4796 C 54.0723,809.6695 54.9648,808.0503 54.9648,808.0503 C 52.4912,807.5874 51.7041,805.5752 51.7041,805.5752 C 51.0459,804.2261 50.9849,802.5372 51.0049,801.691 C 51.0127,801.3257 51.0342,801.1124 51.0342,801.1124 C 51.0801,797.4825 52.2832,796.5806 52.2832,796.5806 C 53.1152,795.5865 54.896,795.3086 54.896,795.3086 C 55.8672,795.0772 55.8442,793.4356 55.8442,793.4356 C 55.8442,791.0997 55.8442,788.8106 55.8442,788.8106 C 55.8213,783.9083 55.4512,783.0069 55.4512,783.0069 C 55.2661,782.1504 54.6641,782.1045 54.6641,782.1045 C 57.3691,782.3125 58.8491,782.0118 58.8491,782.0118 C 58.0171,782.3584 58.0171,783.0528 58.0171,783.0528 C 57.9009,788.7413 58.0171,793.4122 58.0171,793.4122 C 57.9932,794.9156 58.9419,795.2852 58.9419,795.2852 C 61.1152,795.8404 61.4619,796.6265 61.4619,796.6265 C 62.7827,798.003 62.8374,800.6739 62.8037,801.691 C 62.7949,801.9913 62.7803,802.1534 62.7803,802.1534 C 62.792,804.9634 61.439,806.4546 61.439,806.4546 C 60.5142,807.6104 58.6411,808.1656 58.6411,808.1656 L 63.4053,808.1426 C 64.792,808.0044 64.769,805.8765 64.769,805.8765 C 64.9175,804.4971 64.957,803.0176 64.9468,801.691 C 64.9272,799.2872 64.7461,797.3663 64.7461,797.3663 C 64.561,795.2623 63.6362,795.4244 63.6362,795.4244 L 62.4331,795.4283 C 63.2202,795.1973 63.104,793.2505 63.104,793.2505 C 63.2432,788.5333 62.896,783.4229 62.896,783.4229 C 62.8032,782.2901 62.04,782.0352 62.04,782.0352 C 64.2832,782.2432 65.8101,782.0352 65.8101,782.0352 C 65.1162,782.1963 65.1392,783.6768 65.1392,783.6768 L 65.0933,787.9786 C 68.0059,788.1163 68.8853,787.9307 68.8853,787.9307 C 69.4624,787.9541 69.6948,787.7237 69.6948,787.7237 L 70.0649,789.6153 C 69.8101,789.4766 68.0303,789.5225 68.0303,789.5225 L 65.1162,789.5225 L 65.1162,793.4815 C 65.1392,793.8975 65.8101,793.8746 65.8101,793.8746 C 68.6997,794.0362 69.3247,793.8194 69.3247,793.8194 C 69.9722,793.7735 70.0181,793.5743 70.0181,793.5743 L 70.2729,794.8223 C 70.4575,795.3316 69.8804,795.2344 69.8804,795.2344 L 68.145,795.2393 C 66.873,795.1465 67.0352,796.2334 67.0352,796.2334 L 67.0352,801.691 L 67.0352,806.4083 C 67.0581,807.0552 67.5898,807.1255 67.5898,807.1255 C 69.0933,807.4253 70.0405,807.1026 70.0405,807.1026 C 71.1753,806.7964 71.2212,805.6915 71.2212,805.6915 C 71.521,804.4424 70.5269,803.4712 70.5269,803.4712 C 69.856,802.8003 68.6997,802.8243 68.6997,802.8243 C 68.1909,802.9166 68.4458,802.5923 68.4458,802.5923 C 68.5493,802.3067 68.6646,802.0064 68.7866,801.691 C 69.8647,798.9834 71.5327,795.6094 71.5327,795.6094 C 71.8452,795.1236 72.3774,795.1924 72.3774,795.1924 C 72.9438,795.1353 72.9097,794.3374 72.9097,794.3374 C 73.0015,788.879 72.8159,783.9776 72.8159,783.9776 C 72.7007,782.2432 72.0308,782.0821 72.0308,782.0821 C 75.0591,782.2666 75.8921,782.0586 75.8921,782.0586 C 79.6841,781.8262 79.8237,782.0118 79.8237,782.0118 C 80.2397,781.9883 80.3091,782.8448 80.3091,782.8448 L 80.6567,784.4639 C 80.3091,783.376 78.5981,783.4786 78.5981,783.4786"
           id="path2436"
           style="fill:#ffffff;fill-opacity:1;fill-rule:nonzero;stroke:none" />
        <path
           d="M 80.4204,803.0782 C 80.4204,803.0782 82.3208,805.3165 84.1245,807.0513 C 84.1245,807.0513 85.1421,808.1612 85.6968,808.3692 L 83.8472,808.3692 C 83.8472,808.3692 83.1304,808.3926 82.7368,807.9532 C 82.7368,807.9532 81.0034,806.0386 78.0659,802.5694 C 78.0659,802.5694 78.2964,802.5425 82.6909,795.7432 C 82.6909,795.7432 83.1069,795.1426 83.6157,795.2115 L 86.2378,795.2115 C 86.2378,795.2115 85.1421,795.6094 80.4204,803.0782"
           id="path2438"
           style="fill:#ffffff;fill-opacity:1;fill-rule:nonzero;stroke:none" />
        <path
           d="M 58.9419,819.9825 C 61.4619,820.0982 61.9019,819.9825 61.9019,819.9825 C 62.9883,820.0284 63.3579,818.9654 63.3579,818.9654 C 65.8789,813.9932 67.0811,810.7554 67.0811,810.7554 C 67.752,809.0445 67.5898,808.6973 67.5898,808.6973 C 67.5898,808.3746 67.2319,808.3272 67.2319,808.3272 L 64.3301,808.3272 C 64.5723,810.6514 64.561,810.9366 64.561,810.9366 C 64.0752,810.0694 63.728,810.0113 63.728,810.0113 C 62.9419,809.5953 59.312,809.6875 59.312,809.6875 C 58.248,809.6993 58.1323,810.5665 58.1323,810.5665 C 58.063,812.6475 58.1323,814.2935 58.1323,814.2935 C 58.1782,814.4327 58.3169,814.4327 58.3169,814.4327 C 62.2949,814.5713 62.3643,814.2706 62.3643,814.2706 L 62.5952,816.1675 C 62.2021,816.0284 61.8091,816.0005 61.8091,816.0005 C 59.5889,815.8843 58.1323,815.9585 58.1323,815.9585 L 58.1323,818.8497 C 58.0859,819.9825 58.9419,819.9825 58.9419,819.9825"
           id="path2440"
           style="fill:#1378c7;fill-opacity:1;fill-rule:nonzero;stroke:none" />
        <path
           d="M 53.3003,802.2222 C 53.1611,798.8926 53.9712,797.5704 53.9712,797.5704 C 54.9648,795.7945 56.583,795.8213 56.583,795.8213 C 59.0342,795.7476 59.811,797.6163 59.811,797.6163 C 60.5513,799.2623 60.4219,802.2222 60.4219,802.2222 C 60.3643,804.7203 59.6118,805.8077 59.6118,805.8077 C 58.7451,807.3916 56.999,807.2872 56.999,807.2872 C 54.9189,807.4253 53.9849,805.8077 53.9849,805.8077 C 53.2539,804.7432 53.3003,802.2222 53.3003,802.2222"
           id="path2442"
           style="fill:#1378c7;fill-opacity:1;fill-rule:nonzero;stroke:none" />
        <path
           d="M 70.6431,802.4776 C 72.3081,798.8003 73.8804,796.5113 73.8804,796.5113 C 74.8511,794.9966 75.3726,795.2505 75.3726,795.2505 C 75.6147,795.2505 75.605,795.8863 75.605,795.8863 C 75.9067,801.5064 75.6284,806.4083 75.6284,806.4083 C 75.4663,808.2583 74.8511,808.3746 74.8511,808.3746 L 75.8462,808.3746 C 75.7993,808.8824 75.6382,809.2525 75.6382,809.2525 C 73.4868,815.4732 72.2153,818.2256 72.2153,818.2256 C 70.4575,813.2994 69.3364,809.3106 69.3364,809.3106 C 69.2319,808.8824 69.1636,808.3272 69.1636,808.3272 C 71.4985,808.3746 72.0073,807.9805 72.0073,807.9805 C 73.4292,807.3916 73.5103,805.6456 73.5103,805.6456 C 73.5562,804.0035 72.6079,803.3326 72.6079,803.3326 C 71.8452,802.6153 70.6431,802.4776 70.6431,802.4776"
           id="path2444"
           style="fill:#1378c7;fill-opacity:1;fill-rule:nonzero;stroke:none" />
      </g>
    </g>
  </g>
</svg>
