<?xml version="1.0" encoding="UTF-8"?>
<svg id="Capa_2" data-name="Capa 2" xmlns="http://www.w3.org/2000/svg" viewBox="0 0 460.67 204">
  <defs>
    <style>
      .cls-1 {
        fill: #8f9ead;
      }

      .cls-2 {
        fill: #06345f;
      }

      .cls-3 {
        fill: #04335e;
      }

      .cls-4 {
        fill: #d8dadd;
      }

      .cls-5 {
        fill: #073560;
      }

      .cls-6 {
        fill: #1e77cf;
      }

      .cls-7 {
        fill: #03325d;
      }

      .cls-8 {
        fill: #05345f;
      }

      .cls-9 {
        fill: #06355f;
      }

      .cls-10 {
        fill: #1d76cf;
      }
    </style>
  </defs>
  <g id="Capa_1-2" data-name="Capa 1">
    <g>
      <path class="cls-7" d="M10.9,116.23V5.45l99-.03c22.48,2.14,46.28,7.96,62.04,25.13,22.69,24.71,20.87,72.15-6.52,92.85-1.09.21-7.8-4.43-9.53-5.37-39.52-21.4-81.97-23.26-124.53-9.5-6.95,2.25-13.57,5.32-20.46,7.69ZM91.28,32.27c-38.9,2.67-33.92,62.41,4.66,59.13,38.18-3.24,34.71-61.83-4.66-59.13Z"/>
      <path class="cls-10" d="M418.32,131.95c-.79-4.51-1.17-9.06-2.62-13.43-8.91-26.88-29.58-9.52-48.02-7.8-55.11,5.15-67.48-38.98-63.19-84.98.4-4.29,1.43-12.88,2.57-16.8.22-.75.4-1.47,1.05-1.98l57.84-.32c23.09,1.17,48.23,5.32,65.94,21.23,26.23,23.55,26.42,71.05.64,95.04-1.71,1.59-12.66,10.13-14.22,9.05ZM357.64,34.68c-39.4,4.08-33.7,64.21,5.26,61.55,41.13-2.81,36.68-65.9-5.26-61.55Z"/>
      <path class="cls-6" d="M275.74,6.66h20.58c.26,0,1.02.95.88,1.45-1.18,7.31-3.1,14.59-4.15,21.92-4.61,32.43-6.04,86.99,30.21,102.24,2.22.94,4.85.87,6.65,2.43v65.98l-.91.91h-53.27l-.91-.91V7.57l.91-.91Z"/>
      <path class="cls-3" d="M10.9,137.72c15.19-8.2,34.17-6.99,48.86,1.68l10.35,60.82-.79,1.36H11.8l-.91-.91v-62.96Z"/>
      <path class="cls-2" d="M243.65,151.34l-6.66-6.68c-6.7,5.82-14.66,8.79-23.64,8.52-28.13-.84-36.67-31.11-11.13-43.96.27-1.72-1.9-2.68-2.73-3.93-7.94-12.06-4.65-25.83,9.37-30.51,21.37-7.14,44.14,9.03,28.74,30.55-.82,1.89-9.58,6.47-9.42,7.55.14.91,6.53,7.48,7.58,8.2.51.35.63.83,1.52.59l6.97-10.89h19.07l-15.04,22,17.46,18.56h-22.1ZM217.76,86.1c-8.39,1.72-6.31,13.89.45,16.8,10.51-2,11.39-19.23-.45-16.8ZM217.93,124.7c-1.36-1.32-3.59-4.89-5.75-4.81-2.03.08-4.5,2.53-5.15,4.2h-1.21c-.06.4.05.82,0,1.21-.07.58.02,1.22,0,1.82h-1.21s-.05,3.98-.05,3.98l.21.74,1.05.12c.05.79-.16,1.37.18,2.24.07.19,2.72,2.75,2.9,2.84.77.41,1.37.22,1.76.36-.14,1.74,1.74,1.7,3.03,1.82,1.2.11,3.04.12,4.24,0,.4-.04.81.05,1.21,0v-1.21c.58-.07,1.28.1,1.82,0,.36-.07.82.07,1.21,0v-1.21h.61c1.54.46,1.1-1.11,1.21-1.21.71-.62.93-.95,1.21-1.21.11-.1.82.13,1.15-.04l.05-.86c-.05-.17-.53-.17-.6-.31-.82-1.72-1.31-1.78-2.42-3.03-.64-.71-.97-.95-1.21-1.21-.97-1.04-2.01-2.03-3.03-3.03-.34-.34-.84-.85-1.21-1.21Z"/>
      <path class="cls-8" d="M86.31,138.29c9.81,8.35,12.51,22.95,30.23,22.17,15.84-.7,19.17-16.18,28.8-23.3,10.4-7.69,22.82.04,14.74,11.71-3.28,4.73-10.68,6.81-14.8,10.62-10.8,9.99-1.43,29.41-6.28,41.54l-47.89-.05c-4.86-11.86,3.59-28.95-4.55-39.64-3.41-4.48-8.51-5.78-12.65-9.15-14.27-11.62-1.36-25.62,12.41-13.9Z"/>
      <path class="cls-5" d="M199.16,201.58h-54.18l-.92-1.49c4.54-9.02-1.15-20.9,1.12-29.79,1.36-5.32,7.67-10.25,12.62-12.22,9.78,8.41,18.39,18.68,27.42,28.07,3.28,3.41,11.21,9.95,13.36,13.27.48.75.74,1.2.58,2.15Z"/>
      <path class="cls-9" d="M106.14,127.94c11.65-11.16,30.35,1.07,24.44,16.27-4.34,11.18-19.73,12.49-26.36,2.49-3.44-5.19-2.64-14.38,1.92-18.76Z"/>
      <path class="cls-4" d="M217.76,86.1c11.84-2.43,10.96,14.8.45,16.8-6.76-2.91-8.83-15.08-.45-16.8Z"/>
      <path class="cls-1" d="M205.82,127.12c-.05,1.56-.1,3.3,0,4.84l-1.05-.12-.21-.74.05-3.99h1.21Z"/>
      <path class="cls-1" d="M210.66,137.41c1.35.5,3.48.09,3.03,1.82-1.29-.12-3.17-.08-3.03-1.82Z"/>
      <path class="cls-1" d="M207.03,124.1c-.1.26.12.83-.01,1.2h-1.2c.05-.38-.06-.8,0-1.2h1.21Z"/>
      <path class="cls-1" d="M217.93,124.7c.37.36.87.87,1.21,1.21-1.16.21-1.41-.06-1.21-1.21Z"/>
      <path class="cls-1" d="M222.16,128.94c.24.26.57.5,1.21,1.21-1.11.19-1.43-.09-1.21-1.21Z"/>
      <path class="cls-1" d="M225.79,133.18c.07.14.55.13.6.31l-.05.86c-.33.18-1.04-.05-1.15.04l.61-1.21Z"/>
      <path class="cls-1" d="M223.98,135.6c-.11.1.33,1.67-1.21,1.21v-1.21s1.21,0,1.21,0Z"/>
      <path class="cls-1" d="M222.16,136.81v1.21c-.39.07-.85-.07-1.21,0v-1.21s1.21,0,1.21,0Z"/>
      <path class="cls-1" d="M219.14,138.02v1.21c-.4.05-.82-.04-1.21,0v-1.21s1.21,0,1.21,0Z"/>
    </g>
  </g>
</svg>