<?xml version="1.0" encoding="UTF-8"?>
<svg id="Capa_2" data-name="Capa 2" xmlns="http://www.w3.org/2000/svg" viewBox="0 0 558.66 128.92">
  <defs>
    <style>
      .cls-1 {
        fill: #2a7ed1;
      }

      .cls-2 {
        fill: #eff5fb;
      }

      .cls-3 {
        fill: #297dd1;
      }

      .cls-4 {
        fill: #383536;
      }

      .cls-5 {
        fill: #267cd1;
      }

      .cls-6 {
        fill: #2a2728;
      }

      .cls-7 {
        fill: #242122;
      }

      .cls-8 {
        fill: #2078cf;
      }

      .cls-9 {
        fill: #221f20;
      }

      .cls-10 {
        fill: #343132;
      }

      .cls-11 {
        fill: #247ad0;
      }

      .cls-12 {
        fill: #2f2c2d;
      }

      .cls-13 {
        fill: #f2f2f3;
      }

      .cls-14 {
        fill: #237ad0;
      }

      .cls-15 {
        fill: #272425;
      }

      .cls-16 {
        fill: #333031;
      }

      .cls-17 {
        fill: #312e2f;
      }

      .cls-18 {
        fill: #efefef;
      }

      .cls-19 {
        fill: #252223;
      }

      .cls-20 {
        fill: #363435;
      }

      .cls-21 {
        fill: #257bd0;
      }

      .cls-22 {
        fill: #e8e8e9;
      }

      .cls-23 {
        fill: #277dd1;
      }
    </style>
  </defs>
  <g id="Capa_1-2" data-name="Capa 1">
    <g>
      <path class="cls-19" d="M90.41,12.16l8.11,20.28,6.89-20.28h12.97v38.11h-8.92v-22.7c-3.68,3.39-3.89,12.05-6.56,15.74-1.66,2.3-6.18,1.12-8.74,1.18l-6.6-16.11v21.89h-9.73V12.16h12.57Z"/>
      <path class="cls-15" d="M140.27,13.38l1.37-1.06c9.41-1.62,26-3.17,27.05,9.94.42,5.28-.89,10.48-5.77,13.06l8.16,14.95-10.54-.4c-2.25-1.09-5.3-10.28-7.25-12.04-.9-.81-1.37-.57-2.47-.54v12.97h-10.54V13.38ZM157.92,20.46l-7.11-1.01v9.74c7.01.82,10.22-1.8,7.11-8.73Z"/>
      <path class="cls-19" d="M8.11,13.38l1.37-1.06c6.73-.92,14.23-2.24,20.57,1.02,8.56,4.39,8.54,17.73-.07,21.96l8.94,14.98h-11.35l-7.71-12.97-2.02,1.21v11.76h-9.73V13.38ZM25.75,28.19c4.44-4.47-2.23-11.07-7.92-8.73v9.74c2.07-.1,6.44.48,7.92-1.01Z"/>
      <path class="cls-19" d="M65.6,12.24l8.99,38.02h-10.53s-1.53-8.44-1.53-8.44l-9.87-.11-2.33,8.21-9.78.35,8.95-38.07,16.1.04ZM60.81,33.24c.36-.34-1.79-8.2-2.21-9.54-.31-.98-.61-3.43-1.83-3.43l-2.44,12.96h6.49Z"/>
      <path class="cls-7" d="M200.27,12.16v8.11h-14.19c-1.89,1.57-1.82,5.03,0,6.49h11.76v8.11h-11.76l-1.09,1.34-.13,5.14,16.22.81v8.11h-25.95V12.16h25.14Z"/>
      <path class="cls-19" d="M232.71,12.16c3.11,3.12-8.69,20.06-10.68,23.78-.88,1.66-2.12,3.54-2.29,5.41h12.97v8.92h-26.76c-.73-10.91,9.42-19.34,12.97-29.19h-12.97v-8.92h26.76Z"/>
      <path class="cls-15" d="M260.28,15.4v6.49s-8.45.72-8.45.72c-2.23,4.42,4.2,5.56,6.43,8.19l.4-4.05,5.59.1c2.39,5.12-2.79,8.83,4,10.59.93,1.52-1.61,5.96-2.81,6.3-1.53.45-2.62-1.45-3.99-1.6-1.83-.2-5.96,2.41-8.91,2.47-6.69.15-12.95-4.11-10.55-11.42.51-1.56,2.5-2.7,2.7-3.7.25-1.27-1.2-3.58-1.16-5.45.21-9.22,9.79-9.01,16.75-8.65ZM255.41,38.92c.33-1.54-.78-1.95-1.69-2.76-7.19-6.38-6.45,4.3,1.69,2.76Z"/>
      <path class="cls-1" d="M342.98,86.76l4.82.07.44,2.36c3.13-4.18,9.59-4.81,12.16,0,2.64-4.66,14.19-3.93,14.19,1.22v22.3h-4.86v-19.87c0-3.36-6.45-2.32-8.11,0v19.87h-4.86v-19.05c0-2.79-5.46-4.11-7.38-1.7-2.04,2.58.11,15.44-.85,19.42-.67,2.03-3.82,1.23-5.56,1.33v-25.95Z"/>
      <path class="cls-16" d="M447.57,9.73l4.47.8,19.04,33.25V9.73h3.24v40.54l-4.47-.8c-5.19-9.35-10.08-19.01-15.67-28.12-.85-1.39-1.52-4-3.37-3.51v32.43h-3.24V9.73Z"/>
      <path class="cls-11" d="M239.19,86.76v29.6c0,2.06-4.25,5.94-6.46,6.51-4.06,1.05-13.54,1.72-11.37-4.48,7.59,2.06,14.4,1.48,12.96-8.11-14.81,10.88-19.78-16.37-9.19-22.58,4.64-2.72,9.11-1.64,14.07-.93ZM234.33,90c-9.16-2.01-11.34,7.36-9.19,14.46,1.86,6.16,9.19,4.4,9.19,2.16v-16.62Z"/>
      <path class="cls-8" d="M388.38,112.7l-.35,9.79-4.51.76v-36.48s4,.05,4,.05l.85,2.36c3.39-6.14,11.33-3.13,13.58,3.06,3.75,10.3-1.25,22.47-13.58,20.46ZM387.57,108.65c13.02,5.55,13.76-20.34,3.84-18.52-.92.17-3.84,2.14-3.84,2.71v15.81Z"/>
      <path class="cls-10" d="M281.36,37.3v12.97h-4.05V10.54c8.96-1.93,21.83-2.23,23.44,9.4,1.9,13.71-7.1,18.04-19.39,17.36ZM281.36,12.97v19.87l1.34,1.09c10.6,1.84,18.4-6.47,13.42-16.66-2.91-5.96-9.33-4.05-14.77-4.29Z"/>
      <path class="cls-12" d="M347.76,9.82l12.24,40.45-3.65-.8-3.55-11.69-15.39-.38c-1.65,1.07-1.54,15.05-7.4,12.86l13.48-40.42,4.27-.03ZM351.09,34.05c-1.17-6.87-3.59-13.75-6.08-20.28-2.5,6.53-4.91,13.41-6.08,20.28h12.16Z"/>
      <path class="cls-12" d="M550.55,50.27l-4.02-.03-3.77-12.99-14.96.41-4.12,12.5-3.12.12,12.24-40.45,4.27.03,13.49,40.42ZM541.63,34.05l-5.68-20.27c-1.11.1-1.31,1.16-1.65,1.99-2.26,5.37-3.36,12.71-5.63,18.28h12.97Z"/>
      <path class="cls-14" d="M287.28,89.76c2.1,2.82,12.05,2.85,13.98,9.12,4.01,13-9.14,16.05-19.01,12.93l-.09-3.97c.64-.66,15.31,4.56,14.67-5.28-.48-7.28-17.38-4.62-15.43-17.78.48-3.26,3.21-6.55,6.41-7.38,2.16-.56,12.22-1.22,12.93.91,1.73,5.2-5.41,2.41-8.46,2.74-4.45.49-7.87,4.85-5,8.69Z"/>
      <path class="cls-6" d="M441.09,9.73v3.24h-17.84v15.41h15.41v3.24h-15.41v15.41h17.43c.86,0,1.54,2.3,1.22,3.24h-21.89V9.73h21.08Z"/>
      <path class="cls-23" d="M253.57,86.14c16.7-3.41,16.2,24.09,6.13,26.4-18.02,4.12-17.48-24.08-6.13-26.4ZM254.35,90.15c-3.89,1.19-3.45,11.57-2.94,14.79.9,5.74,8.83,6.42,9.67-1.57.49-4.71,1.07-15.62-6.73-13.22Z"/>
      <rect class="cls-9" x="124.87" y="20.27" width="9.73" height="30"/>
      <path class="cls-14" d="M142.14,110.83c-5.84-5.29-5.13-22.77,4.4-24.7,16.14-3.27,15.86,24.83,5.44,26.53-2.81.46-7.66.15-9.84-1.83ZM147.34,90.17c-5.46,1.61-5.67,19.91,2.15,19.08,6.41-.68,7.4-21.9-2.15-19.08Z"/>
      <path class="cls-21" d="M136.21,81.89c-10.93-3.28-16.92,1.43-17.09,12.58-.17,11.69,5.7,16.36,17.09,13.37l-.11,3.94c-17,4.58-23.56-5.33-21.69-21.28,1.43-12.22,9.81-15.07,21.05-13.11l.75,4.51Z"/>
      <path class="cls-5" d="M184.87,112.7h-4.86v-19.87c0-2.71-8.92-2.71-8.92,0v18.65l-4.86,1.22v-25.95l4.01.07.44,2.36c2.72-5.52,14.19-2.9,14.19,2.03v21.49Z"/>
      <path class="cls-3" d="M442.71,101.35h-13.78c-.97,8.5,6.75,8.18,12.97,6.49l-.11,3.53c-.7,2.18-9.12,1.49-11.29.98-11.35-2.68-9.33-32.09,6.87-25.51,5.84,2.37,5.53,9.18,5.35,14.51ZM437.85,98.11c.28-3.91.21-8.19-4.46-8.86-4.69.67-4.74,4.97-4.46,8.86h8.93Z"/>
      <path class="cls-3" d="M337.3,101.35h-13.78c-.9,7.8,5.61,8.38,11.69,6.58,5.51,5.78-6.96,5.36-10.31,4.6-9.56-2.15-10.25-26.67,3.07-26.67,8.24,0,9.91,8.83,9.32,15.48ZM332.44,98.11c.28-3.91.21-8.19-4.46-8.86-4.69.67-4.74,4.97-4.46,8.86h8.93Z"/>
      <path class="cls-17" d="M384.21,10.66l.11,3.12c-6.93-1.44-16.57-2.81-16.28,6.9.22,7.56,8.48,6.72,13.33,10.25,7.36,5.35,4.7,18.14-4.12,19.96-3.07.63-13.2.9-12.38-3.86.81-.79,17.1,4.93,17.1-6.9,0-10.95-17.53-6.21-17.95-19.49-.35-10.98,11.94-12.81,20.19-9.99Z"/>
      <path class="cls-3" d="M198.65,106.62c.59,2.12,4.61,2.29,6.49,2.02v4.06c-15.32,2.43-11.76-11.65-12.2-21.87-3,.39-5.3-1.07-3.51-4.09l4-.76.7-8.21,4.51-.76v9.74s6.5.46,6.5.46v3.59s-6.5,0-6.5,0v15.81Z"/>
      <path class="cls-10" d="M414.21,10.66l.11,3.12c-18.59-4.98-21.21,7.79-19.36,23.02,1.45,11.96,9.32,11.89,19.37,10.23.53,5.16-8.75,4.4-12.21,3.69-8.37-1.72-10.81-9.42-11.34-17.04-1.15-16.64,5.02-28.06,23.43-23.02Z"/>
      <path class="cls-17" d="M504.21,10.66l.12,3.12c-4.49-.74-10.34-1.87-14.52.48-7.06,3.98-6.75,24.48-2.06,30.3s15.87,1.76,16.59,2.47c.53,5.16-8.75,4.4-12.21,3.69-7.55-1.55-10.72-8.36-11.33-15.42-1.49-17.05,3.95-29.86,23.42-24.64Z"/>
      <polygon class="cls-4" points="309.73 47.03 326.76 47.03 326.76 50.27 305.68 50.27 305.68 9.73 309.73 10.95 309.73 47.03"/>
      <polygon class="cls-20" points="514.87 9.73 514.87 50.27 510.82 50.27 510.82 10.95 512.14 9.84 514.87 9.73"/>
      <path class="cls-11" d="M409.47,86.76h4.06s0,3.24,0,3.24c3.66-3.57,9.59-7.5,8.92.81-1.78-.78-8.11,1.07-8.11,2.84v19.05h-4.86v-25.95Z"/>
      <rect class="cls-5" x="210" y="86.76" width="4.86" height="25.95"/>
      <rect class="cls-5" x="308.11" y="86.76" width="4.86" height="25.95"/>
      <path class="cls-15" d="M139.46,9.73c-2.72,7.41-5.83,9.21-13.78,8.1l3.37-7.97,10.41-.13Z"/>
      <path class="cls-1" d="M209.3,80.97c-2.18-3.47,3.49-8,6-3.96s-4.55,6.26-6,3.96Z"/>
      <path class="cls-1" d="M310.33,75.52c4.25-.59,4.71,6.03.57,6.41s-5.26-5.76-.57-6.41Z"/>
      <path class="cls-18" d="M25.75,28.19c-1.48,1.48-5.85.91-7.92,1.01v-9.74c5.69-2.34,12.36,4.26,7.92,8.73Z"/>
      <path class="cls-22" d="M60.81,33.24h-6.49s2.44-12.96,2.44-12.96c1.22,0,1.51,2.45,1.83,3.43.43,1.33,2.57,9.2,2.21,9.54Z"/>
      <path class="cls-22" d="M255.41,38.92c-8.14,1.54-8.89-9.14-1.69-2.76.91.81,2.02,1.22,1.69,2.76Z"/>
      <path class="cls-2" d="M387.57,108.65v-15.81c0-.57,2.93-2.55,3.84-2.71,9.92-1.82,9.18,24.08-3.84,18.52Z"/>
      <path class="cls-13" d="M351.09,34.05h-12.16c1.17-6.87,3.59-13.75,6.08-20.28,2.5,6.53,4.91,13.41,6.08,20.28Z"/>
      <path class="cls-13" d="M541.63,34.05h-12.97c2.28-5.58,3.38-12.92,5.63-18.28.35-.83.54-1.89,1.65-1.99l5.68,20.27Z"/>
      <path class="cls-2" d="M437.85,98.11h-8.93c-.27-3.89-.22-8.19,4.46-8.86,4.67.66,4.74,4.95,4.46,8.86Z"/>
      <path class="cls-2" d="M332.44,98.11h-8.93c-.27-3.89-.22-8.19,4.46-8.86,4.67.66,4.74,4.95,4.46,8.86Z"/>
    </g>
  </g>
</svg>